<svg width="256" height="256" viewBox="0 0 256 256" fill="none" xmlns="http://www.w3.org/2000/svg">
<rect width="256" height="256" rx="60" fill="#F2F2F2"/>
<path d="M63.21 93.232C63.21 90.0747 64.2767 87.6427 66.41 85.936C68.5433 84.144 71.4873 83.248 75.242 83.248V127.152L121.962 83.248C123.413 84.4427 124.607 85.7227 125.546 87.088C126.485 88.368 126.954 89.52 126.954 90.544C126.954 92.6773 125.674 94.9387 123.114 97.328L93.162 125.488L131.818 171.824C130.879 172.848 129.77 173.659 128.49 174.256C127.295 174.853 126.101 175.152 124.906 175.152C121.578 175.152 118.89 173.957 116.842 171.568L84.458 133.168L75.242 141.744V165.552C75.242 168.795 74.2607 171.227 72.298 172.848C70.3353 174.384 67.306 175.152 63.21 175.152V93.232ZM152.857 174C151.15 174 149.657 173.403 148.377 172.208C147.182 170.928 146.585 169.435 146.585 167.728V93.232C146.585 86.576 150.596 83.248 158.617 83.248V163.376H197.913C200.9 163.376 203.204 164.315 204.825 166.192C206.446 167.984 207.257 170.587 207.257 174H152.857Z" fill="#3D8985"/>
</svg>
