<svg width="232" height="251" viewBox="0 0 232 251" fill="none" xmlns="http://www.w3.org/2000/svg">
<path d="M200 0C217.673 1.80393e-06 232 14.3269 232 32V178C232 195.673 217.673 210 200 210H32C14.3269 210 6.60407e-07 195.673 0 178V32C0 14.3269 14.3269 0 32 0H200ZM116 55C88.3858 55 66 77.3858 66 105C66 132.614 88.3858 155 116 155C143.614 155 166 132.614 166 105C166 77.3858 143.614 55 116 55Z" fill="#408D89"/>
<path d="M39 242V210H91.5C81.5 220.667 59.7 243.3 52.5 248.5C45.3 253.7 40.5 246.333 39 242Z" fill="#408D89"/>
</svg>
